<?xml version="1.0" encoding="UTF-8"?>
<svg version="1.1" xmlns="http://www.w3.org/2000/svg" width="1569" height="440">
<path d="M0 0 C12.38621608 11.35320842 20.01782435 24.26338992 21.12475586 41.26269531 C21.5893039 59.61234282 16.29659409 77.92687795 12.51198578 95.76149964 C11.79571753 99.13993524 11.08275496 102.51906858 10.36938477 105.89811707 C9.01071787 112.33137235 7.64918432 118.7640173 6.28657913 125.19643945 C4.77842345 132.31661372 3.27343911 139.43745683 1.76876259 146.55836701 C1.02838135 150.06182143 0.28759176 153.56518951 -0.453125 157.068573 C-1.48212136 161.93544595 -2.51033701 166.80248258 -3.53754902 171.66973245 C-4.26160149 175.10007531 -4.98622991 178.5302963 -5.71118164 181.96044922 C-5.85286459 182.63087698 -5.99454754 183.30130475 -6.14052391 183.9920485 C-7.92515135 192.43229827 -9.72939594 200.86799524 -11.55697632 209.29907322 C-12.58435777 214.04052908 -13.60495471 218.78343454 -14.62518311 223.52643394 C-15.09436561 225.69745004 -15.5670662 227.86770967 -16.04376221 230.03708839 C-23.04724876 256.54656794 -23.04724876 256.54656794 -18.21899414 282.34082031 C-16.2936305 284.97058594 -16.2936305 284.97058594 -13.78149414 286.21582031 C-12.09399414 287.90332031 -12.09399414 287.90332031 -11.99633789 289.83691406 C-12.47243281 294.78997174 -13.70695581 299.04868615 -15.09399414 303.90332031 C-44.46399414 303.90332031 -73.83399414 303.90332031 -104.09399414 303.90332031 C-106.0680312 294.69114739 -107.53922973 287.5953261 -107.28149414 278.52832031 C-107.26795898 277.58988281 -107.25442383 276.65144531 -107.24047852 275.68457031 C-107.20587001 273.42348146 -107.15708975 271.16376106 -107.09399414 268.90332031 C-107.52808594 269.42474609 -107.96217773 269.94617188 -108.40942383 270.48339844 C-129.6904369 295.82872521 -161.99631734 310.82228861 -194.56103516 314.70263672 C-199.87950917 315.12401365 -205.21306757 315.12871686 -210.54541016 315.14355469 C-212.62777809 315.15318748 -214.70912532 315.18425414 -216.79125977 315.21582031 C-237.34167676 315.37825857 -258.56738779 310.03174022 -273.8984375 295.63793945 C-287.00941088 282.72262183 -292.18906172 267.92984947 -292.33544922 249.69433594 C-292.33999015 248.22233498 -292.34280548 246.7503278 -292.34399414 245.27832031 C-292.34466888 244.53445068 -292.34534363 243.79058105 -292.34603882 243.02416992 C-292.32930164 231.42264435 -291.81483231 220.22050742 -289.09399414 208.90332031 C-288.92770508 208.19401367 -288.76141602 207.48470703 -288.59008789 206.75390625 C-281.96380003 179.47568788 -266.31824011 154.85099314 -242.03637695 140.05859375 C-241.39539063 139.67735352 -240.7544043 139.29611328 -240.09399414 138.90332031 C-239.37308594 138.4730957 -238.65217773 138.04287109 -237.90942383 137.59960938 C-227.57292969 131.55891247 -217.00294016 126.84678889 -205.65649414 123.02832031 C-204.63539551 122.68349609 -203.61429688 122.33867187 -202.56225586 121.98339844 C-181.96692555 115.3852353 -160.75356515 112.33695549 -139.39013672 109.42382812 C-103.41257835 104.8296568 -103.41257835 104.8296568 -73.28149414 86.15332031 C-68.36334036 78.84634897 -65.73957711 70.71415951 -67.09399414 61.90332031 C-68.41966673 56.4777199 -70.57482806 52.85823216 -75.09399414 49.52832031 C-90.64955986 40.32248552 -113.03495999 41.54400282 -130.09399414 44.90332031 C-139.21394072 47.35832171 -146.81226976 50.87661486 -154.09399414 56.90332031 C-154.73981445 57.42539063 -155.38563477 57.94746094 -156.05102539 58.48535156 C-164.49012897 66.04193451 -167.19429247 76.27108084 -170.09399414 86.90332031 C-196.82399414 86.90332031 -223.55399414 86.90332031 -251.09399414 86.90332031 C-247.59442818 68.23896854 -247.59442818 68.23896854 -244.90649414 61.34082031 C-244.60388672 60.54909424 -244.3012793 59.75736816 -243.98950195 58.94165039 C-231.32983966 26.71263807 -206.55229028 3.71124849 -175.48461914 -10.78027344 C-126.43765372 -31.39499144 -43.26214629 -37.34993731 0 0 Z M-87.66040039 151.44238281 C-105.05032329 157.50539993 -122.52454027 161.94822094 -140.55102539 165.65332031 C-141.27913925 165.80401474 -142.00725311 165.95470917 -142.75743103 166.10997009 C-146.33147855 166.84935927 -149.90688867 167.57753569 -153.48828125 168.28051758 C-171.07447729 171.81394735 -188.05042243 178.20121277 -198.81274414 193.31738281 C-205.31710044 203.61594695 -208.25355732 214.71134173 -207.09399414 226.90332031 C-205.36824564 234.05582011 -202.04119153 239.52730031 -196.09399414 243.90332031 C-182.4345539 251.58821979 -163.98230391 250.64789598 -149.16088867 246.88012695 C-126.85385981 240.45662296 -108.45424022 225.24513257 -97.10083008 205.14501953 C-87.94123595 188.05180773 -84.82150258 168.73023434 -81.09399414 149.90332031 C-83.57201517 149.90332031 -85.32031616 150.61100445 -87.66040039 151.44238281 Z " fill="#FFFFFF" transform="translate(818.093994140625,125.0966796875)"/>
<path d="M0 0 C1.60101562 0.80050781 1.60101562 0.80050781 3.234375 1.6171875 C11.28416038 5.97575005 17.50247547 11.66349284 24 18 C24.65742187 18.58394531 25.31484375 19.16789062 25.9921875 19.76953125 C44.00257017 36.16146939 51.90799201 63.65595287 53.17285156 87.22021484 C54.10045445 114.49096038 49.19604209 140.10274003 43.7421875 166.66796875 C43.58185028 167.44925644 43.42151306 168.23054413 43.25631714 169.0355072 C42.56478394 172.37699211 41.82779293 175.68882828 41 179 C-26.32 179.33 -93.64 179.66 -163 180 C-165.38375225 200.2618941 -167.30322674 219.61513843 -155.3125 237.3125 C-148.05542009 246.24429065 -138.1545025 250.50493265 -127 252 C-107.29800213 253.28300254 -89.2865919 251.15241197 -73.875 237.75 C-65.17516274 229.96620433 -65.17516274 229.96620433 -58.89530945 220.38801575 C-57 218 -57 218 -53.37434387 217.39872742 C-51.8378877 217.384216 -50.30102301 217.39756735 -48.76489258 217.43237305 C-47.50602486 217.43127785 -47.50602486 217.43127785 -46.22172546 217.43016052 C-43.44533848 217.43364642 -40.6706254 217.47255362 -37.89453125 217.51171875 C-35.97068702 217.52104334 -34.04683092 217.52816112 -32.12297058 217.53315735 C-27.05753848 217.55225502 -21.99282239 217.60137977 -16.92767334 217.65667725 C-11.75982348 217.70780999 -6.591858 217.73065862 -1.42382812 217.75585938 C8.71776264 217.80949574 18.8588218 217.89484212 29 218 C23.91928018 247.09157091 -7.86623778 276.99294366 -30.68261719 293.19482422 C-68.93444554 319.68641828 -117.81225699 332.2289631 -164 324 C-183.40555884 319.98532456 -200.80734733 312.92395118 -216 300 C-216.66515625 299.48050781 -217.3303125 298.96101563 -218.015625 298.42578125 C-239.01846848 281.47836486 -249.9481367 253.57637082 -253.0546875 227.40771484 C-259.13753847 167.65061636 -240.20958665 100.10293021 -202.5546875 53.078125 C-198.70892797 48.3899047 -194.65340378 43.91186825 -190.46386719 39.53125 C-189.47256414 38.49431659 -188.48636667 37.45248231 -187.50488281 36.40625 C-174.80121392 22.89896244 -160.50171833 12.42789856 -144 4 C-143.36707031 3.67660645 -142.73414063 3.35321289 -142.08203125 3.02001953 C-128.95917762 -3.58537561 -115.67830475 -7.82343615 -101.3125 -10.75 C-100.27947754 -10.96092285 -99.24645508 -11.1718457 -98.18212891 -11.38916016 C-65.65128651 -17.69864256 -29.79528195 -15.02962451 0 0 Z M-127 78 C-127.69351562 78.68578125 -128.38703125 79.3715625 -129.1015625 80.078125 C-140.18429967 91.63155757 -147.17222165 107.68888661 -151 123 C-112.72 123 -74.44 123 -35 123 C-32.45306155 106.44490005 -30.51215576 89.9663994 -40.21484375 75.28125 C-47.82489036 65.55637643 -57.89040989 60.07939968 -70.0625 58.28125 C-91.8686206 56.19342994 -111.73639287 62.02005029 -127 78 Z " fill="#FFFFFF" transform="translate(1321,114)"/>
<path d="M0 0 C14.68414803 12.4991468 22.86252637 27.09437672 24.8125 46.25 C26.49593221 68.42320714 20.18448642 90.7802245 15.51989746 112.28562927 C14.03391849 119.15069336 12.56749332 126.01999054 11.09625626 132.88822556 C10.46687296 135.82516175 9.83659819 138.76190575 9.20626831 141.69863892 C5.11440188 160.7763192 1.08028504 179.86610533 -2.94921875 198.95703125 C-3.11808413 199.7570068 -3.28694951 200.55698236 -3.46093202 201.3811996 C-5.86513245 212.77077932 -8.26808105 224.16062301 -10.67077589 235.55052042 C-13.02125705 246.69274409 -15.37210604 257.83488986 -17.72475284 268.9766565 C-18.64829289 273.3505723 -19.57113647 277.72463424 -20.4934184 282.0988155 C-21.19163978 285.40942547 -21.8908169 288.71983345 -22.58984375 292.03027344 C-22.84009717 293.21817695 -23.09035059 294.40608046 -23.34818745 295.62998104 C-23.57738471 296.71451344 -23.80658197 297.79904585 -24.04272461 298.91644287 C-24.24095322 299.85600704 -24.43918182 300.79557121 -24.64341736 301.76360703 C-25.11852246 303.93478083 -25.64845288 306.09381152 -26.1875 308.25 C-54.2375 308.25 -82.2875 308.25 -111.1875 308.25 C-110.06249903 296.99999031 -110.06249903 296.99999031 -108.99562073 291.97285461 C-108.75627304 290.83222061 -108.51692535 289.69158661 -108.27032471 288.51638794 C-107.87850006 286.68936844 -107.87850006 286.68936844 -107.47875977 284.82543945 C-107.19881763 283.50132234 -106.91934633 282.17710561 -106.64030457 280.85279846 C-105.88416396 277.2708111 -105.12146512 273.69024908 -104.35754895 270.10991311 C-103.5469294 266.30506307 -102.74244348 262.49891617 -101.9372406 258.69291687 C-100.40226515 251.44201103 -98.86182685 244.19227712 -97.31942171 236.94294852 C-95.60389011 228.87863979 -93.89445476 220.81304342 -92.18556905 212.74732423 C-90.85306667 206.45886109 -89.51938551 200.17064778 -88.18584013 193.88240576 C-87.69155096 191.55146366 -87.19737481 189.22049761 -86.70320511 186.88953018 C-85.73659875 182.33066324 -84.76928271 177.77194734 -83.80126953 173.21337891 C-83.64587306 172.4815811 -83.49047659 171.74978329 -83.33037114 170.99580979 C-81.26062769 161.25321417 -79.16725939 151.51602358 -77.05419922 141.78271484 C-76.36260378 138.58360765 -75.67156194 135.38438143 -74.98072624 132.18511009 C-74.36860488 129.36306533 -73.74791448 126.54300923 -73.12660217 123.72297668 C-66.53237363 94.13073045 -66.53237363 94.13073045 -75.1875 66 C-82.69213242 57.89683862 -94.3439219 55.65299443 -104.8359375 55.03515625 C-128.01028256 54.46604169 -149.62813377 61.14728283 -167.33203125 76.4921875 C-187.88304101 96.34035835 -191.89520903 124.57622413 -197.45595837 151.26450229 C-198.25010141 155.06819314 -199.05229865 158.87018558 -199.85357666 162.67237854 C-201.37449496 169.89509507 -202.8886645 177.11920801 -204.40019631 184.34389406 C-206.25356518 193.20110534 -208.1148821 202.05664204 -209.9765625 210.91210938 C-210.63923298 214.06474137 -211.30185352 217.21738387 -211.96447754 220.37002563 C-212.12691405 221.1428166 -212.28935056 221.91560756 -212.45670938 222.71181643 C-213.5880995 228.09464181 -214.71868891 233.477635 -215.84899902 238.86068726 C-222.59818106 271.00019681 -222.59818106 271.00019681 -225.99958038 286.94630623 C-226.38052568 288.73325296 -226.7605693 290.52039219 -227.13964081 292.30773735 C-227.64277154 294.67848937 -228.14937497 297.04846838 -228.65722656 299.41821289 C-228.93197815 300.70546768 -229.20672974 301.99272247 -229.48980713 303.31898499 C-230.1875 306.25 -230.1875 306.25 -231.1875 308.25 C-259.5675 308.25 -287.9475 308.25 -317.1875 308.25 C-308.84801602 268.59657127 -300.47442729 228.95061665 -292.0625 189.3125 C-291.91613381 188.62278956 -291.76976763 187.93307913 -291.6189661 187.22246838 C-287.91206702 169.75487112 -284.20347608 152.28763343 -280.49379086 134.82062769 C-278.12589296 123.67125915 -275.75977469 112.52151397 -273.39453125 101.37158203 C-270.65315582 88.44867738 -267.90911166 75.52634234 -265.16176033 62.60470676 C-263.72310852 55.8380041 -262.28556481 49.07107053 -260.85101318 42.30349731 C-259.51399112 35.99606194 -258.17345882 29.68937928 -256.83049011 23.38320732 C-256.3397254 21.07595566 -255.85014445 18.76845184 -255.36183167 16.46068001 C-254.69673083 13.31831097 -254.02737703 10.17687734 -253.35693359 7.03564453 C-253.06892537 5.66741594 -253.06892537 5.66741594 -252.7750988 4.27154636 C-252.59411203 3.42784457 -252.41312527 2.58414278 -252.22665405 1.71487427 C-252.07313162 0.99217913 -251.91960918 0.26948399 -251.76143456 -0.47511101 C-251.05479454 -3.27600106 -250.10097278 -6.00958166 -249.1875 -8.75 C-221.4675 -8.75 -193.7475 -8.75 -165.1875 -8.75 C-170.1875 17.25 -170.1875 17.25 -172.1875 27.25 C-171.02863281 26.22390625 -169.86976563 25.1978125 -168.67578125 24.140625 C-152.12078558 9.67544766 -134.11008365 -2.59980054 -113.1875 -9.75 C-112.54699707 -9.97381348 -111.90649414 -10.19762695 -111.24658203 -10.42822266 C-76.78481654 -22.27577399 -30.18483665 -23.07979048 0 0 Z " fill="#FFFFFF" transform="translate(481.1875,120.75)"/>
<path d="M0 0 C28.38 0 56.76 0 86 0 C83.74961294 13.50232237 83.74961294 13.50232237 82.41186523 19.83227539 C82.26687592 20.52171234 82.1218866 21.21114929 81.97250366 21.92147827 C81.50370294 24.14740781 81.03127303 26.37254741 80.55859375 28.59765625 C80.22737071 30.16511941 79.89632435 31.73261991 79.56544495 33.30015564 C78.87703248 36.55876517 78.18687465 39.81699831 77.49536133 43.07495117 C76.60917121 47.25053802 75.72687046 51.42693528 74.84577847 55.6036005 C74.16510859 58.82858844 73.48270043 62.05320654 72.7997303 65.27770805 C72.47352149 66.81859837 72.14778723 68.35958922 71.82253838 69.90068245 C71.36966506 72.0449171 70.914523 74.18865756 70.45874023 76.33227539 C70.07140968 78.15995201 70.07140968 78.15995201 69.67625427 80.02455139 C69 83 69 83 68 86 C85.16 86 102.32 86 120 86 C118.87484888 97.25151122 118.87484888 97.25151122 117.984375 101.50976562 C117.68901855 102.94044373 117.68901855 102.94044373 117.38769531 104.40002441 C117.17725586 105.39207886 116.96681641 106.3841333 116.75 107.40625 C116.53182617 108.45276733 116.31365234 109.49928467 116.08886719 110.57751465 C115.63072982 112.76964298 115.17008443 114.96124854 114.70703125 117.15234375 C113.99641728 120.51696348 113.29449095 123.88331165 112.59375 127.25 C112.14633915 129.3855227 111.6984401 131.52094319 111.25 133.65625 C111.03956055 134.66449829 110.82912109 135.67274658 110.61230469 136.71154785 C110.31694824 138.10440002 110.31694824 138.10440002 110.015625 139.52539062 C109.84321289 140.3435022 109.67080078 141.16161377 109.49316406 142.0045166 C109 144 109 144 108 146 C90.51 146.33 73.02 146.66 55 147 C50.47061949 168.60128653 45.94162286 190.20265342 41.41332436 211.80416679 C39.31063037 221.83466625 37.20776489 231.86512969 35.10449219 241.89550781 C33.27075918 250.64046992 31.43735149 259.38550017 29.60433042 268.13061154 C28.63422949 272.75878414 27.66396841 277.38692304 26.69331741 282.01498032 C25.77856682 286.37653046 24.86425328 290.73817199 23.95026588 295.09988213 C23.61585547 296.69537241 23.28128933 298.29083006 22.94655037 299.88625145 C21.95972562 304.58987897 20.97735441 309.29439498 20 314 C19.78770123 315.01770603 19.57540245 316.03541206 19.35667038 317.08395767 C19.17575474 317.96561474 18.9948391 318.8472718 18.80844116 319.75564575 C18.65820684 320.48444002 18.50797253 321.21323429 18.35318565 321.96411324 C17.58948228 326.36636903 16.97837004 330.35650833 19.4375 334.3125 C29.63867629 341.0303478 42.94629326 340.12391236 54.6875 340.5625 C55.78255859 340.60568359 56.87761719 340.64886719 58.00585938 340.69335938 C60.67048597 340.79808269 63.33518311 340.90025779 66 341 C65.26204771 348.12716612 63.7985231 355.03411672 62.27734375 362.03125 C62.01240616 363.26290894 61.74746857 364.49456787 61.47450256 365.7635498 C60.77499233 369.01250508 60.07253084 372.26079266 59.36859131 375.50878906 C58.64881355 378.83344281 57.93297902 382.15894521 57.21679688 385.484375 C55.8148034 391.99036556 54.4089084 398.49550361 53 405 C50.00773246 405.85496815 47.27671135 406.15719028 44.16918945 406.23706055 C43.20910477 406.26346115 42.24902008 406.28986176 41.25984192 406.31706238 C39.70229439 406.35154228 39.70229439 406.35154228 38.11328125 406.38671875 C36.47941719 406.42500542 36.47941719 406.42500542 34.81254578 406.46406555 C32.49333222 406.51612947 30.17405805 406.56554964 27.85473633 406.61254883 C24.39817688 406.68568714 20.94242479 406.77698136 17.48632812 406.86914062 C-43.84782649 408.28046092 -43.84782649 408.28046092 -62.4765625 390.7421875 C-72.19235875 379.63130256 -74.01493686 366.21772786 -73.24716759 351.95610046 C-72.77804055 346.34538644 -71.81255078 340.81802641 -70.86450195 335.27148438 C-70.75508542 334.62393157 -70.64566888 333.97637877 -70.53293669 333.30920315 C-68.10498604 318.97821285 -65.15979142 304.7640482 -62.10246825 290.55494118 C-61.35119674 287.05587728 -60.60790177 283.55511757 -59.86360168 280.05456543 C-58.45483635 273.43441881 -57.03951336 266.81569389 -55.62152702 260.19751692 C-53.87943595 252.06516708 -52.14570342 243.9310396 -50.41210938 235.796875 C-49.79345859 232.89451573 -49.17473169 229.99217271 -48.55593872 227.08984375 C-48.40438045 226.37898369 -48.25282217 225.66812363 -48.09667122 224.93572235 C-47.04439517 220.00111038 -45.99037082 215.06687388 -44.93551636 210.1328125 C-42.39616751 198.25337408 -39.85987296 186.37340662 -37.36572266 174.484375 C-37.1724064 173.56307549 -36.97909014 172.64177597 -36.77991581 171.69255829 C-35.920125 167.59161245 -35.06295465 163.49014104 -34.20976257 159.38781738 C-33.92281076 158.0144022 -33.63584961 156.64098896 -33.34887695 155.26757812 C-33.10925735 154.114552 -32.86963776 152.96152588 -32.62275696 151.77355957 C-32 149 -32 149 -31 146 C-45.52 146 -60.04 146 -75 146 C-73.87484888 134.74848878 -73.87484888 134.74848878 -72.984375 130.49023438 C-72.7874707 129.53644897 -72.59056641 128.58266357 -72.38769531 127.59997559 C-72.17725586 126.60792114 -71.96681641 125.6158667 -71.75 124.59375 C-71.53182617 123.54723267 -71.31365234 122.50071533 -71.08886719 121.42248535 C-70.63072982 119.23035702 -70.17008443 117.03875146 -69.70703125 114.84765625 C-68.99641728 111.48303652 -68.29449095 108.11668835 -67.59375 104.75 C-67.14633915 102.6144773 -66.6984401 100.47905681 -66.25 98.34375 C-66.03956055 97.33550171 -65.82912109 96.32725342 -65.61230469 95.28845215 C-65.31694824 93.89559998 -65.31694824 93.89559998 -65.015625 92.47460938 C-64.84321289 91.6564978 -64.67080078 90.83838623 -64.49316406 89.9954834 C-64 88 -64 88 -63 86 C-47.82 86 -32.64 86 -17 86 C-16.67 82.7 -16.34 79.4 -16 76 C-15.55127939 73.43176623 -15.06086557 70.87040434 -14.52539062 68.31884766 C-14.38054733 67.62155548 -14.23570404 66.92426331 -14.08647156 66.20584106 C-13.61469103 63.94084488 -13.1355907 61.67746961 -12.65625 59.4140625 C-12.32333803 57.82377021 -11.99086682 56.23338561 -11.65881348 54.64291382 C-10.78926719 50.4843018 -9.91336201 46.32705395 -9.03619385 42.17004395 C-8.32024135 38.7717756 -7.6087996 35.37257042 -6.89759064 31.97330666 C-5.42795003 24.94948448 -3.95545512 17.926254 -2.47460938 10.90478516 C-2.2133728 9.66475739 -1.95213623 8.42472961 -1.6829834 7.14712524 C-1.1639067 4.75526714 -0.59361434 2.37445738 0 0 Z " fill="#FFFFFF" transform="translate(955,26)"/>
<path d="M0 0 C29.7 0 59.4 0 90 0 C87.10473355 15.05538551 84.21492974 30.07985124 81.00619507 45.06681824 C80.77071331 46.16825857 80.53523155 47.26969891 80.29261398 48.40451622 C80.04909824 49.54333055 79.8055825 50.68214489 79.5546875 51.85546875 C79.03082761 54.31487736 78.50720413 56.77433633 77.98379517 59.23384094 C76.86722084 64.47831322 75.74914441 69.72246156 74.62963867 74.96630859 C72.98803329 82.65585299 71.3494883 90.34604724 69.7117219 98.03641009 C68.94068542 101.65690937 68.16954449 105.2773864 67.39837646 108.89785767 C67.24435702 109.62094765 67.09033758 110.34403764 66.93165088 111.08903944 C65.83038741 116.2589479 64.72859173 121.42874276 63.62652588 126.59848022 C59.466608 146.11260721 55.31223147 165.62790337 51.1640625 185.14453125 C51.02591 185.79451678 50.88775749 186.44450232 50.74541855 187.11418438 C49.4934321 193.00463822 48.24152185 198.89510825 46.98970795 204.78559875 C45.05335079 213.89707867 43.11623788 223.00839767 41.17871094 232.11962891 C35.74765119 257.65980738 30.31966943 283.20063388 24.89841866 308.74289644 C23.79975043 313.9191382 22.70078829 319.0953175 21.60162354 324.27145386 C21.44799874 324.99489742 21.29437395 325.71834099 21.13609385 326.46370709 C20.36749296 330.08311296 19.59885167 333.70251024 18.83018112 337.32190132 C17.19882367 345.00366339 15.56844391 352.68563167 13.93937075 360.3678785 C12.70032213 366.21043513 11.45962547 372.0526406 10.21836472 377.89472771 C9.71414758 380.26916814 9.21046277 382.6437217 8.70738602 385.01840401 C8.01228958 388.29912385 7.31519105 391.57941284 6.61767578 394.85961914 C6.42553246 395.76886391 6.23338913 396.67810867 6.03542328 397.61490631 C3.80050418 408.10337508 1.37740829 418.53940353 -1 429 C-30.37 429 -59.74 429 -90 429 C-88.87499406 417.74994058 -88.87499406 417.74994058 -88.09214783 414.04014587 C-87.91516515 413.18870971 -87.73818247 412.33727354 -87.55583668 411.46003628 C-87.36330657 410.56048749 -87.17077646 409.6609387 -86.97241211 408.73413086 C-86.66342373 407.25925626 -86.66342373 407.25925626 -86.34819317 405.75458622 C-85.66295464 402.49025434 -84.9701837 399.22757 -84.27734375 395.96484375 C-83.78434033 393.62436012 -83.29178777 391.28378148 -82.7996521 388.94311523 C-81.60375891 383.26145929 -80.40290825 377.58086785 -79.19977283 371.90074146 C-77.77826172 365.18842695 -76.36286813 358.47482632 -74.94747722 351.76121914 C-71.30905605 334.50520516 -67.6567418 317.25213979 -64 300 C-63.73849655 298.76624634 -63.4769931 297.53249268 -63.20756531 296.26135254 C-58.6162641 274.6027115 -54.01644895 252.9458809 -49.40966797 231.29052734 C-43.6340246 204.1378455 -37.87730418 176.98124921 -32.140625 149.8203125 C-31.97286678 149.02607006 -31.80510856 148.23182763 -31.63226676 147.41351724 C-28.46231147 132.40535922 -25.29342938 117.39697468 -22.12661743 102.38815308 C-9.98062555 44.82339249 -9.98062555 44.82339249 -5.26913261 22.76896477 C-4.88400258 20.96570174 -4.49940125 19.16232571 -4.11537361 17.35882759 C-3.6026715 14.9523006 -3.08774288 12.54626234 -2.57202148 10.14038086 C-2.425035 9.44882589 -2.27804852 8.75727093 -2.12660789 8.04475975 C-1.53556228 5.29902512 -0.88929861 2.66789583 0 0 Z " fill="#FFFFFF" transform="translate(90,0)"/>
<path d="M0 0 C28.38 0 56.76 0 86 0 C84.64322406 8.14065567 83.19018895 16.18124616 81.46679688 24.24145508 C81.21801033 25.41532335 80.96922379 26.58919163 80.71289825 27.79863167 C80.02843542 31.02544976 79.34162914 34.25175808 78.65374756 37.47784877 C77.90826079 40.97682765 77.16577154 44.47644282 76.42285156 47.97596741 C74.96343137 54.84806805 73.50106027 61.71953761 72.03766155 68.590792 C70.83530825 74.23667014 69.63418922 79.88280968 68.43383789 85.52911377 C56.24954277 142.84111806 44.00456308 200.14015048 31.74191225 257.43543434 C30.16249596 264.81501182 28.58317144 272.19460894 27.00390625 279.57421875 C26.83306495 280.37251193 26.66222365 281.17080511 26.48620534 281.99328899 C21.57167948 304.95790971 16.66725194 327.92465575 11.77734375 350.89453125 C11.5684054 351.8759547 11.5684054 351.8759547 11.35524607 352.8772049 C8.64743688 365.59648753 5.9413012 378.31612538 3.23769283 391.03630161 C2.34332032 395.24377989 1.44846168 399.4511547 0.55352974 403.65851402 C-0.04747522 406.48518169 -0.64767224 409.31202005 -1.24781799 412.13887024 C-1.60340386 413.81093189 -1.95902771 415.48298545 -2.31469727 417.1550293 C-2.47284157 417.90114408 -2.63098587 418.64725887 -2.79392242 419.4159832 C-3.47785408 422.62743068 -4.20346009 425.81384038 -5 429 C-33.38 429 -61.76 429 -91 429 C-85.2570078 399.13644054 -85.2570078 399.13644054 -83.20214844 389.56469727 C-82.96109375 388.43121794 -82.72003906 387.29773861 -82.47167969 386.12991142 C-81.68666385 382.44155607 -80.89804583 378.75398162 -80.109375 375.06640625 C-79.53416537 372.36876876 -78.95975535 369.67096117 -78.38531494 366.97315979 C-77.15468364 361.19556026 -75.92223008 355.41835204 -74.68847656 349.64141846 C-72.87867143 341.16707513 -71.07183493 332.69210085 -69.26574421 324.2169652 C-67.00504028 313.60861396 -64.74380888 303.00037539 -62.4810791 292.39245605 C-57.64328653 269.71216073 -52.81168794 247.03055448 -47.98513508 224.34786463 C-47.09914798 220.18412327 -46.21311557 216.02039155 -45.3270874 211.85665894 C-45.15200456 211.03388745 -44.97692173 210.21111597 -44.79653335 209.36341202 C-44.44333144 207.70360296 -44.09012886 206.04379405 -43.7369256 204.38398528 C-43.38456994 202.72815737 -43.0322162 201.07232906 -42.67986441 199.41650033 C-32.03922094 149.4125326 -21.38975372 99.41044006 -10.71539307 49.41365814 C-10.00587926 46.09004057 -9.2966087 42.76637118 -8.58740234 39.44268799 C-7.50588428 34.37442669 -6.42365322 29.30631821 -5.34078979 24.23834419 C-4.95231324 22.41975333 -4.56406209 20.6011143 -4.17605591 18.78242302 C-3.65448613 16.337962 -3.13205367 13.893687 -2.609375 11.44946289 C-2.45901291 10.74382769 -2.30865082 10.03819248 -2.1537323 9.31117439 C-1.48561773 6.1911852 -0.77406125 3.09624498 0 0 Z " fill="#FFFFFF" transform="translate(1483,0)"/>
</svg>
